# xmcd
#
# Track frame offsets: 
#        150
#        14402
#        33456
#        53793
#        72713
#        92830
#        108797
#        128036
#        147479
#        165953
#        187104
#        208742
#        218371
#        233074
#        249582
#
# Disc length: 3585 seconds
#
# Revision: 2
# Processed by: cddbd v1.5.2PL0 Copyright (c) Steve Scherf et al.
# Submitted via: ExactAudioCopy v1.3
#
DISCID=d40dff0f
DTITLE=Kool and The Gang - With Friends
DYEAR=2004
DGENRE=Pop
TTITLE0=Fresh (with Liberty X)
TTITLE1=Celebration (with Lulu)
TTITLE2=Too Hot (with Lisa Stansfield)
TTITLE3=Misled (with Tony Hadley)
TTITLE4=Cherish (with Ashanti)
TTITLE5=Straight Ahead (with Jamelia)
TTITLE6=Hollywood Swingin' (with Jamiroquai)
TTITLE7=Steppin' Out (with Beverley Knight)
TTITLE8=Take my Heart (with Blu Cantrell)
TTITLE9=Ooh la la la (let's go dancing) (with Jimmy Cliff)
TTITLE10=Stressin'
TTITLE11=Get down on it (Live)
TTITLE12=Jungle Boogie (Live)
TTITLE13=Ladies Night (Live)
TTITLE14=Tonight (Live)
EXTD=
EXTT0=
EXTT1=
EXTT2=
EXTT3=
EXTT4=
EXTT5=
EXTT6=
EXTT7=
EXTT8=
EXTT9=
EXTT10=
EXTT11=
EXTT12=
EXTT13=
EXTT14=
PLAYORDER=
